{"title":"48-hours-The War in Chicago-Fatal0ty.m4v","uid":9667668,"size":426805372,"categoryP":"video","categoryS":"tv_shows","magnet":"?xt=urn:btih:78d50da9192c9ea1e4716c9ce189d946493f5b43&amp;dn=48-hours-The+War+in+Chicago-Fatal0ty.m4v&amp;tr=udp%3A%2F%2Ftracker.openbittorrent.com%3A80&amp;tr=udp%3A%2F%2Fopen.demonii.com%3A1337&amp;tr=udp%3A%2F%2Ftracker.coppersurfer.tk%3A6969&amp;tr=udp%3A%2F%2Fexodus.desync.com%3A6969","seeders":2,"leechers":1,"uploader":"gate4","files":1,"time":1393404031,"description":"An honor student shot dead, an innocent victim of a gang war. An investigation into drugs, guns, gangs and the battle for Chicago. Maureen Maher and Armen Keteyian report.\n\n\nFormat : MPEG-4\nCodec ID : M4V\nFile size : 407 MiB\nDuration : 42mn 57s\nOverall bit rate mode : Variable\nOverall bit rate : 1 325 Kbps\nWriting application : Lavf54.59.106\n\nVideo\nID : 1\nFormat : AVC\nFormat/Info : Advanced Video Codec\nFormat profile : &lt;a class=&quot;__cf_email__&quot; href=&quot;/cdn-cgi/l/email-protection&quot; data-cfemail=&quot;ce83afa7a08e82fde0ff&quot;&gt;[email&amp;#160;protected]&lt;/a&gt;&lt;script cf-hash='f9e31' type=&quot;text/javascript&quot;&gt;\n/* &lt;![CDATA[ */!function(){try{var t=&quot;currentScript&quot;in document?document.currentScript:function(){for(var t=document.getElementsByTagName(&quot;script&quot;),e=t.length;e--;)if(t[e].getAttribute(&quot;cf-hash&quot;))return t[e]}();if(t&amp;&amp;t.previousSibling){var e,r,n,i,c=t.previousSibling,a=c.getAttribute(&quot;data-cfemail&quot;);if(a){for(e=&quot;&quot;,r=parseInt(a.substr(0,2),16),n=2;a.length-n;n+=2)i=parseInt(a.substr(n,2),16)^r,e+=String.fromCharCode(i);e=document.createTextNode(e),c.parentNode.replaceChild(e,c)}}}catch(u){}}();/* ]]&gt; */&lt;/script&gt;\nFormat settings, CABAC : Yes\nFormat settings, ReFrames : 5 frames\nFormat settings, GOP : M=1, N=30\nCodec ID : avc1\nCodec ID/Info : Advanced Video Coding\nDuration : 42mn 57s\nBit rate : 1 200 Kbps\nWidth : 896 pixels\nHeight : 504 pixels\nDisplay aspect ratio : 16:9\nFrame rate mode : Constant\nFrame rate : 29.970 fps\nColor space : YUV\nChroma subsampling : 4:2:0\nBit depth : 8 bits\nScan type : Progressive\nBits/(Pixel*Frame) : 0.089\nStream size : 368 MiB (90%)\nWriting library : x264 core 129\nLanguage : English\n\n\nAudio\nID : 2\nFormat : AAC\nFormat/Info : Advanced Audio Codec\nFormat profile : LC\nCodec ID : 40\nDuration : 42mn 57s\nDuration_LastFrame : -23ms\nBit rate mode : Variable\nBit rate : 72.0 Kbps\nMaximum bit rate : 96.0 Kbps\nChannel(s) : 2 channels\nChannel positions : Front: L R\nSampling rate : 44.1 KHz\nCompression mode : Lossy\nStream size : 22.0 MiB (5%)\nLanguage : English","torrent":{"xt":"urn:btih:78d50da9192c9ea1e4716c9ce189d946493f5b43","amp;dn":"48-hours-The+War+in+Chicago-Fatal0ty.m4v","amp;tr":["udp%3A%2F%2Ftracker.openbittorrent.com%3A80","udp%3A%2F%2Fopen.demonii.com%3A1337","udp%3A%2F%2Ftracker.coppersurfer.tk%3A6969","udp%3A%2F%2Fexodus.desync.com%3A6969"],"infoHash":"78d50da9192c9ea1e4716c9ce189d946493f5b43","infoHashBuffer":{"type":"Buffer","data":[120,213,13,169,25,44,158,161,228,113,108,156,225,137,217,70,73,63,91,67]},"announce":[],"urlList":[]}}